<mxfile host="app.diagrams.net" modified="2021-01-20T16:29:43.763Z" agent="5.0 (Windows NT 6.1; Win64; x64) AppleWebKit/537.36 (KHTML, like Gecko) Chrome/87.0.4280.141 Safari/537.36" etag="2tgHpCAUxKbcIOw1qsJG" version="14.2.5" type="github">
  <diagram id="LZiAop6SkvyM2Lya098d" name="Page-1">
    <mxGraphModel dx="1040" dy="922" grid="1" gridSize="10" guides="1" tooltips="1" connect="1" arrows="1" fold="1" page="1" pageScale="1" pageWidth="827" pageHeight="1169" math="0" shadow="0">
      <root>
        <mxCell id="0" />
        <mxCell id="1" parent="0" />
        <mxCell id="sJXOKXyNyVLJZZKxoagh-1" value="" style="shape=table;html=1;whiteSpace=wrap;startSize=0;container=1;collapsible=0;childLayout=tableLayout;" vertex="1" parent="1">
          <mxGeometry x="60" y="70" width="250" height="120" as="geometry" />
        </mxCell>
        <mxCell id="sJXOKXyNyVLJZZKxoagh-2" value="" style="shape=partialRectangle;html=1;whiteSpace=wrap;collapsible=0;dropTarget=0;pointerEvents=0;fillColor=none;top=0;left=0;bottom=0;right=0;points=[[0,0.5],[1,0.5]];portConstraint=eastwest;" vertex="1" parent="sJXOKXyNyVLJZZKxoagh-1">
          <mxGeometry width="250" height="40" as="geometry" />
        </mxCell>
        <mxCell id="sJXOKXyNyVLJZZKxoagh-3" value="Time" style="shape=partialRectangle;html=1;whiteSpace=wrap;connectable=0;fillColor=none;top=0;left=0;bottom=0;right=0;overflow=hidden;" vertex="1" parent="sJXOKXyNyVLJZZKxoagh-2">
          <mxGeometry width="83" height="40" as="geometry" />
        </mxCell>
        <mxCell id="sJXOKXyNyVLJZZKxoagh-4" value="Mode" style="shape=partialRectangle;html=1;whiteSpace=wrap;connectable=0;fillColor=none;top=0;left=0;bottom=0;right=0;overflow=hidden;" vertex="1" parent="sJXOKXyNyVLJZZKxoagh-2">
          <mxGeometry x="83" width="84" height="40" as="geometry" />
        </mxCell>
        <mxCell id="sJXOKXyNyVLJZZKxoagh-5" value="IPv4" style="shape=partialRectangle;html=1;whiteSpace=wrap;connectable=0;fillColor=none;top=0;left=0;bottom=0;right=0;overflow=hidden;" vertex="1" parent="sJXOKXyNyVLJZZKxoagh-2">
          <mxGeometry x="167" width="83" height="40" as="geometry" />
        </mxCell>
        <mxCell id="sJXOKXyNyVLJZZKxoagh-6" value="" style="shape=partialRectangle;html=1;whiteSpace=wrap;collapsible=0;dropTarget=0;pointerEvents=0;fillColor=none;top=0;left=0;bottom=0;right=0;points=[[0,0.5],[1,0.5]];portConstraint=eastwest;" vertex="1" parent="sJXOKXyNyVLJZZKxoagh-1">
          <mxGeometry y="40" width="250" height="40" as="geometry" />
        </mxCell>
        <mxCell id="sJXOKXyNyVLJZZKxoagh-7" value="TIME" style="shape=partialRectangle;html=1;whiteSpace=wrap;connectable=0;fillColor=none;top=0;left=0;bottom=0;right=0;overflow=hidden;" vertex="1" parent="sJXOKXyNyVLJZZKxoagh-6">
          <mxGeometry width="83" height="40" as="geometry" />
        </mxCell>
        <mxCell id="sJXOKXyNyVLJZZKxoagh-8" value="Varchar(20)" style="shape=partialRectangle;html=1;whiteSpace=wrap;connectable=0;fillColor=none;top=0;left=0;bottom=0;right=0;overflow=hidden;" vertex="1" parent="sJXOKXyNyVLJZZKxoagh-6">
          <mxGeometry x="83" width="84" height="40" as="geometry" />
        </mxCell>
        <mxCell id="sJXOKXyNyVLJZZKxoagh-9" value="Varchar(40)" style="shape=partialRectangle;html=1;whiteSpace=wrap;connectable=0;fillColor=none;top=0;left=0;bottom=0;right=0;overflow=hidden;" vertex="1" parent="sJXOKXyNyVLJZZKxoagh-6">
          <mxGeometry x="167" width="83" height="40" as="geometry" />
        </mxCell>
        <mxCell id="sJXOKXyNyVLJZZKxoagh-10" value="" style="shape=partialRectangle;html=1;whiteSpace=wrap;collapsible=0;dropTarget=0;pointerEvents=0;fillColor=none;top=0;left=0;bottom=0;right=0;points=[[0,0.5],[1,0.5]];portConstraint=eastwest;" vertex="1" parent="sJXOKXyNyVLJZZKxoagh-1">
          <mxGeometry y="80" width="250" height="40" as="geometry" />
        </mxCell>
        <mxCell id="sJXOKXyNyVLJZZKxoagh-11" value="12:30" style="shape=partialRectangle;html=1;whiteSpace=wrap;connectable=0;fillColor=none;top=0;left=0;bottom=0;right=0;overflow=hidden;" vertex="1" parent="sJXOKXyNyVLJZZKxoagh-10">
          <mxGeometry width="83" height="40" as="geometry" />
        </mxCell>
        <mxCell id="sJXOKXyNyVLJZZKxoagh-12" value="md2, A-z" style="shape=partialRectangle;html=1;whiteSpace=wrap;connectable=0;fillColor=none;top=0;left=0;bottom=0;right=0;overflow=hidden;" vertex="1" parent="sJXOKXyNyVLJZZKxoagh-10">
          <mxGeometry x="83" width="84" height="40" as="geometry" />
        </mxCell>
        <mxCell id="sJXOKXyNyVLJZZKxoagh-13" value="37.110.71.183" style="shape=partialRectangle;html=1;whiteSpace=wrap;connectable=0;fillColor=none;top=0;left=0;bottom=0;right=0;overflow=hidden;" vertex="1" parent="sJXOKXyNyVLJZZKxoagh-10">
          <mxGeometry x="167" width="83" height="40" as="geometry" />
        </mxCell>
        <mxCell id="sJXOKXyNyVLJZZKxoagh-38" value="" style="shape=table;html=1;whiteSpace=wrap;startSize=0;container=1;collapsible=0;childLayout=tableLayout;" vertex="1" parent="1">
          <mxGeometry x="320" y="240" width="370" height="120" as="geometry" />
        </mxCell>
        <mxCell id="sJXOKXyNyVLJZZKxoagh-39" value="" style="shape=partialRectangle;html=1;whiteSpace=wrap;collapsible=0;dropTarget=0;pointerEvents=0;fillColor=none;top=0;left=0;bottom=0;right=0;points=[[0,0.5],[1,0.5]];portConstraint=eastwest;" vertex="1" parent="sJXOKXyNyVLJZZKxoagh-38">
          <mxGeometry width="370" height="40" as="geometry" />
        </mxCell>
        <mxCell id="sJXOKXyNyVLJZZKxoagh-40" value="IPv4" style="shape=partialRectangle;html=1;whiteSpace=wrap;connectable=0;fillColor=none;top=0;left=0;bottom=0;right=0;overflow=hidden;" vertex="1" parent="sJXOKXyNyVLJZZKxoagh-39">
          <mxGeometry width="90" height="40" as="geometry" />
        </mxCell>
        <mxCell id="sJXOKXyNyVLJZZKxoagh-41" value="TImesOneModeUsedInARow" style="shape=partialRectangle;html=1;whiteSpace=wrap;connectable=0;fillColor=none;top=0;left=0;bottom=0;right=0;overflow=hidden;" vertex="1" parent="sJXOKXyNyVLJZZKxoagh-39">
          <mxGeometry x="90" width="160" height="40" as="geometry" />
        </mxCell>
        <mxCell id="sJXOKXyNyVLJZZKxoagh-42" value="Date&lt;br&gt;" style="shape=partialRectangle;html=1;whiteSpace=wrap;connectable=0;fillColor=none;top=0;left=0;bottom=0;right=0;overflow=hidden;" vertex="1" parent="sJXOKXyNyVLJZZKxoagh-39">
          <mxGeometry x="250" width="120" height="40" as="geometry" />
        </mxCell>
        <mxCell id="sJXOKXyNyVLJZZKxoagh-43" value="" style="shape=partialRectangle;html=1;whiteSpace=wrap;collapsible=0;dropTarget=0;pointerEvents=0;fillColor=none;top=0;left=0;bottom=0;right=0;points=[[0,0.5],[1,0.5]];portConstraint=eastwest;" vertex="1" parent="sJXOKXyNyVLJZZKxoagh-38">
          <mxGeometry y="40" width="370" height="40" as="geometry" />
        </mxCell>
        <mxCell id="sJXOKXyNyVLJZZKxoagh-44" value="&lt;span&gt;Varchar(40)&lt;/span&gt;" style="shape=partialRectangle;html=1;whiteSpace=wrap;connectable=0;fillColor=none;top=0;left=0;bottom=0;right=0;overflow=hidden;" vertex="1" parent="sJXOKXyNyVLJZZKxoagh-43">
          <mxGeometry width="90" height="40" as="geometry" />
        </mxCell>
        <mxCell id="sJXOKXyNyVLJZZKxoagh-45" value="INTEGER" style="shape=partialRectangle;html=1;whiteSpace=wrap;connectable=0;fillColor=none;top=0;left=0;bottom=0;right=0;overflow=hidden;" vertex="1" parent="sJXOKXyNyVLJZZKxoagh-43">
          <mxGeometry x="90" width="160" height="40" as="geometry" />
        </mxCell>
        <mxCell id="sJXOKXyNyVLJZZKxoagh-46" value="DATE" style="shape=partialRectangle;html=1;whiteSpace=wrap;connectable=0;fillColor=none;top=0;left=0;bottom=0;right=0;overflow=hidden;" vertex="1" parent="sJXOKXyNyVLJZZKxoagh-43">
          <mxGeometry x="250" width="120" height="40" as="geometry" />
        </mxCell>
        <mxCell id="sJXOKXyNyVLJZZKxoagh-47" value="" style="shape=partialRectangle;html=1;whiteSpace=wrap;collapsible=0;dropTarget=0;pointerEvents=0;fillColor=none;top=0;left=0;bottom=0;right=0;points=[[0,0.5],[1,0.5]];portConstraint=eastwest;" vertex="1" parent="sJXOKXyNyVLJZZKxoagh-38">
          <mxGeometry y="80" width="370" height="40" as="geometry" />
        </mxCell>
        <mxCell id="sJXOKXyNyVLJZZKxoagh-48" value="37.110.71.183" style="shape=partialRectangle;html=1;whiteSpace=wrap;connectable=0;fillColor=none;top=0;left=0;bottom=0;right=0;overflow=hidden;" vertex="1" parent="sJXOKXyNyVLJZZKxoagh-47">
          <mxGeometry width="90" height="40" as="geometry" />
        </mxCell>
        <mxCell id="sJXOKXyNyVLJZZKxoagh-49" value="4" style="shape=partialRectangle;html=1;whiteSpace=wrap;connectable=0;fillColor=none;top=0;left=0;bottom=0;right=0;overflow=hidden;" vertex="1" parent="sJXOKXyNyVLJZZKxoagh-47">
          <mxGeometry x="90" width="160" height="40" as="geometry" />
        </mxCell>
        <mxCell id="sJXOKXyNyVLJZZKxoagh-50" value="20.01.2020" style="shape=partialRectangle;html=1;whiteSpace=wrap;connectable=0;fillColor=none;top=0;left=0;bottom=0;right=0;overflow=hidden;" vertex="1" parent="sJXOKXyNyVLJZZKxoagh-47">
          <mxGeometry x="250" width="120" height="40" as="geometry" />
        </mxCell>
        <mxCell id="sJXOKXyNyVLJZZKxoagh-51" value="" style="shape=table;html=1;whiteSpace=wrap;startSize=0;container=1;collapsible=0;childLayout=tableLayout;" vertex="1" parent="1">
          <mxGeometry x="220" y="490" width="240" height="120" as="geometry" />
        </mxCell>
        <mxCell id="sJXOKXyNyVLJZZKxoagh-52" value="" style="shape=partialRectangle;html=1;whiteSpace=wrap;collapsible=0;dropTarget=0;pointerEvents=0;fillColor=none;top=0;left=0;bottom=0;right=0;points=[[0,0.5],[1,0.5]];portConstraint=eastwest;" vertex="1" parent="sJXOKXyNyVLJZZKxoagh-51">
          <mxGeometry width="240" height="40" as="geometry" />
        </mxCell>
        <mxCell id="sJXOKXyNyVLJZZKxoagh-53" value="IPv4" style="shape=partialRectangle;html=1;whiteSpace=wrap;connectable=0;fillColor=none;top=0;left=0;bottom=0;right=0;overflow=hidden;" vertex="1" parent="sJXOKXyNyVLJZZKxoagh-52">
          <mxGeometry width="80" height="40" as="geometry" />
        </mxCell>
        <mxCell id="sJXOKXyNyVLJZZKxoagh-54" value="passGened" style="shape=partialRectangle;html=1;whiteSpace=wrap;connectable=0;fillColor=none;top=0;left=0;bottom=0;right=0;overflow=hidden;" vertex="1" parent="sJXOKXyNyVLJZZKxoagh-52">
          <mxGeometry x="80" width="90" height="40" as="geometry" />
        </mxCell>
        <mxCell id="sJXOKXyNyVLJZZKxoagh-55" value="Time" style="shape=partialRectangle;html=1;whiteSpace=wrap;connectable=0;fillColor=none;top=0;left=0;bottom=0;right=0;overflow=hidden;" vertex="1" parent="sJXOKXyNyVLJZZKxoagh-52">
          <mxGeometry x="170" width="70" height="40" as="geometry" />
        </mxCell>
        <mxCell id="sJXOKXyNyVLJZZKxoagh-56" value="" style="shape=partialRectangle;html=1;whiteSpace=wrap;collapsible=0;dropTarget=0;pointerEvents=0;fillColor=none;top=0;left=0;bottom=0;right=0;points=[[0,0.5],[1,0.5]];portConstraint=eastwest;" vertex="1" parent="sJXOKXyNyVLJZZKxoagh-51">
          <mxGeometry y="40" width="240" height="40" as="geometry" />
        </mxCell>
        <mxCell id="sJXOKXyNyVLJZZKxoagh-57" value="&lt;span&gt;Varchar(40)&lt;/span&gt;" style="shape=partialRectangle;html=1;whiteSpace=wrap;connectable=0;fillColor=none;top=0;left=0;bottom=0;right=0;overflow=hidden;" vertex="1" parent="sJXOKXyNyVLJZZKxoagh-56">
          <mxGeometry width="80" height="40" as="geometry" />
        </mxCell>
        <mxCell id="sJXOKXyNyVLJZZKxoagh-58" value="Varchar(100)" style="shape=partialRectangle;html=1;whiteSpace=wrap;connectable=0;fillColor=none;top=0;left=0;bottom=0;right=0;overflow=hidden;" vertex="1" parent="sJXOKXyNyVLJZZKxoagh-56">
          <mxGeometry x="80" width="90" height="40" as="geometry" />
        </mxCell>
        <mxCell id="sJXOKXyNyVLJZZKxoagh-59" value="&lt;span&gt;TIME&lt;/span&gt;" style="shape=partialRectangle;html=1;whiteSpace=wrap;connectable=0;fillColor=none;top=0;left=0;bottom=0;right=0;overflow=hidden;" vertex="1" parent="sJXOKXyNyVLJZZKxoagh-56">
          <mxGeometry x="170" width="70" height="40" as="geometry" />
        </mxCell>
        <mxCell id="sJXOKXyNyVLJZZKxoagh-60" value="" style="shape=partialRectangle;html=1;whiteSpace=wrap;collapsible=0;dropTarget=0;pointerEvents=0;fillColor=none;top=0;left=0;bottom=0;right=0;points=[[0,0.5],[1,0.5]];portConstraint=eastwest;" vertex="1" parent="sJXOKXyNyVLJZZKxoagh-51">
          <mxGeometry y="80" width="240" height="40" as="geometry" />
        </mxCell>
        <mxCell id="sJXOKXyNyVLJZZKxoagh-61" value="37.110.71.183" style="shape=partialRectangle;html=1;whiteSpace=wrap;connectable=0;fillColor=none;top=0;left=0;bottom=0;right=0;overflow=hidden;" vertex="1" parent="sJXOKXyNyVLJZZKxoagh-60">
          <mxGeometry width="80" height="40" as="geometry" />
        </mxCell>
        <mxCell id="sJXOKXyNyVLJZZKxoagh-62" value="SQreYk" style="shape=partialRectangle;html=1;whiteSpace=wrap;connectable=0;fillColor=none;top=0;left=0;bottom=0;right=0;overflow=hidden;" vertex="1" parent="sJXOKXyNyVLJZZKxoagh-60">
          <mxGeometry x="80" width="90" height="40" as="geometry" />
        </mxCell>
        <mxCell id="sJXOKXyNyVLJZZKxoagh-63" value="12:30" style="shape=partialRectangle;html=1;whiteSpace=wrap;connectable=0;fillColor=none;top=0;left=0;bottom=0;right=0;overflow=hidden;" vertex="1" parent="sJXOKXyNyVLJZZKxoagh-60">
          <mxGeometry x="170" width="70" height="40" as="geometry" />
        </mxCell>
        <mxCell id="sJXOKXyNyVLJZZKxoagh-65" value="" style="endArrow=none;html=1;entryX=0.768;entryY=1.075;entryDx=0;entryDy=0;entryPerimeter=0;exitX=0.1;exitY=-0.05;exitDx=0;exitDy=0;exitPerimeter=0;" edge="1" parent="1" source="sJXOKXyNyVLJZZKxoagh-52" target="sJXOKXyNyVLJZZKxoagh-10">
          <mxGeometry width="50" height="50" relative="1" as="geometry">
            <mxPoint x="240" y="480" as="sourcePoint" />
            <mxPoint x="140" y="220" as="targetPoint" />
          </mxGeometry>
        </mxCell>
        <mxCell id="sJXOKXyNyVLJZZKxoagh-66" value="" style="endArrow=none;html=1;exitX=0.833;exitY=0;exitDx=0;exitDy=0;exitPerimeter=0;entryX=0.148;entryY=1;entryDx=0;entryDy=0;entryPerimeter=0;fillColor=#d5e8d4;strokeColor=#82b366;" edge="1" parent="1" source="sJXOKXyNyVLJZZKxoagh-52" target="sJXOKXyNyVLJZZKxoagh-10">
          <mxGeometry width="50" height="50" relative="1" as="geometry">
            <mxPoint x="415" y="500" as="sourcePoint" />
            <mxPoint x="262" y="203" as="targetPoint" />
          </mxGeometry>
        </mxCell>
        <mxCell id="sJXOKXyNyVLJZZKxoagh-67" value="" style="endArrow=none;html=1;entryX=0.07;entryY=0.975;entryDx=0;entryDy=0;entryPerimeter=0;exitX=0.133;exitY=0.025;exitDx=0;exitDy=0;exitPerimeter=0;" edge="1" parent="1" source="sJXOKXyNyVLJZZKxoagh-52" target="sJXOKXyNyVLJZZKxoagh-47">
          <mxGeometry width="50" height="50" relative="1" as="geometry">
            <mxPoint x="383" y="497" as="sourcePoint" />
            <mxPoint x="108" y="203" as="targetPoint" />
          </mxGeometry>
        </mxCell>
        <mxCell id="sJXOKXyNyVLJZZKxoagh-68" value="" style="endArrow=none;html=1;entryX=0.868;entryY=1;entryDx=0;entryDy=0;entryPerimeter=0;exitX=0.083;exitY=0.05;exitDx=0;exitDy=0;exitPerimeter=0;" edge="1" parent="1" source="sJXOKXyNyVLJZZKxoagh-52" target="sJXOKXyNyVLJZZKxoagh-10">
          <mxGeometry width="50" height="50" relative="1" as="geometry">
            <mxPoint x="253.94000000000005" y="501" as="sourcePoint" />
            <mxPoint x="351" y="369" as="targetPoint" />
          </mxGeometry>
        </mxCell>
        <mxCell id="sJXOKXyNyVLJZZKxoagh-69" value="IPv4 - основное поле, но оно может повторяться(т.е. не ключ)" style="text;html=1;resizable=0;autosize=1;align=center;verticalAlign=middle;points=[];fillColor=none;strokeColor=none;rounded=0;" vertex="1" parent="1">
          <mxGeometry x="320" y="170" width="360" height="20" as="geometry" />
        </mxCell>
      </root>
    </mxGraphModel>
  </diagram>
</mxfile>
